<svg xmlns="http://www.w3.org/2000/svg" xmlns:xlink="http://www.w3.org/1999/xlink" viewBox="0 0 485.78 485.72"><defs><style>.cls-1{isolation:isolate;}.cls-2{fill:#5564ae;}.cls-3{mix-blend-mode:multiply;}.cls-4{fill:url(#Namnlös_övertoning_31);}.cls-5{fill:url(#Namnlös_övertoning_36);}.cls-6{fill:url(#Namnlös_övertoning_54);}.cls-7{fill:url(#Namnlös_övertoning_75);}.cls-8{fill:url(#Namnlös_övertoning_96);}.cls-9{fill:url(#Namnlös_övertoning_95);}.cls-10{fill:url(#Namnlös_övertoning_94);}.cls-11{fill:url(#Namnlös_övertoning_93);}.cls-12{fill:url(#Namnlös_övertoning_92);}.cls-13{fill:url(#Namnlös_övertoning_91);}.cls-14{fill:url(#Namnlös_övertoning_90);}.cls-15{fill:url(#Namnlös_övertoning_89);}.cls-16{fill:url(#Namnlös_övertoning_88);}.cls-17{fill:url(#Namnlös_övertoning_87);}.cls-18{fill:url(#Namnlös_övertoning_83);}.cls-19{fill:none;stroke:#dcd999;stroke-miterlimit:10;stroke-width:10.07px;}.cls-20{opacity:0.6;fill:url(#Namnlös_övertoning_106);}</style><linearGradient id="Namnlös_övertoning_31" x1="78.11" y1="191.52" x2="521.07" y2="388.74" gradientUnits="userSpaceOnUse"><stop offset="0" stop-color="#e3e2e3"/><stop offset="0.16" stop-color="#deddde"/><stop offset="0.34" stop-color="#d0d0d0"/><stop offset="0.53" stop-color="#b9b9ba"/><stop offset="0.74" stop-color="#99999a"/><stop offset="0.94" stop-color="#6f7171"/><stop offset="1" stop-color="#636565"/></linearGradient><linearGradient id="Namnlös_övertoning_36" x1="299.59" y1="47.27" x2="299.59" y2="532.99" gradientUnits="userSpaceOnUse"><stop offset="0" stop-color="#cdd0d6"/><stop offset="0.17" stop-color="#c8cbd1"/><stop offset="0.36" stop-color="#bbbec3"/><stop offset="0.57" stop-color="#a6a8ac"/><stop offset="0.79" stop-color="#878a8c"/><stop offset="1" stop-color="#636565"/></linearGradient><linearGradient id="Namnlös_övertoning_54" x1="78.43" y1="191.66" x2="520.75" y2="388.6" gradientUnits="userSpaceOnUse"><stop offset="0" stop-color="#969696"/><stop offset="0.18" stop-color="#9b9b9b"/><stop offset="0.39" stop-color="#a9a9a9"/><stop offset="0.61" stop-color="silver"/><stop offset="0.84" stop-color="#dfe0e0"/><stop offset="1" stop-color="#fafbfb"/></linearGradient><linearGradient id="Namnlös_övertoning_75" x1="89.08" y1="396.7" x2="396.76" y2="89.02" gradientUnits="userSpaceOnUse"><stop offset="0" stop-color="#e2e4ea"/><stop offset="0.15" stop-color="#dddfe5"/><stop offset="0.32" stop-color="#d0d2d7"/><stop offset="0.51" stop-color="#babcc0"/><stop offset="0.7" stop-color="#9b9da0"/><stop offset="0.9" stop-color="#747576"/><stop offset="1" stop-color="#5e5f5f"/></linearGradient><linearGradient id="Namnlös_övertoning_96" x1="84.79" y1="388.92" x2="401.05" y2="96.8" gradientUnits="userSpaceOnUse"><stop offset="0" stop-color="#e5e6ec"/><stop offset="0.15" stop-color="#e0e1e7"/><stop offset="0.33" stop-color="#d3d4d9"/><stop offset="0.52" stop-color="#bdbec2"/><stop offset="0.72" stop-color="#9f9fa2"/><stop offset="0.92" stop-color="#787778"/><stop offset="1" stop-color="#676666"/></linearGradient><linearGradient id="Namnlös_övertoning_95" x1="80.87" y1="381.04" x2="404.97" y2="104.68" gradientUnits="userSpaceOnUse"><stop offset="0" stop-color="#e7e8ed"/><stop offset="0.16" stop-color="#e2e3e8"/><stop offset="0.34" stop-color="#d5d6da"/><stop offset="0.54" stop-color="#bfc0c3"/><stop offset="0.74" stop-color="#a1a0a3"/><stop offset="0.95" stop-color="#7a7979"/><stop offset="1" stop-color="#6f6e6e"/></linearGradient><linearGradient id="Namnlös_övertoning_94" x1="77.32" y1="373.09" x2="408.52" y2="112.63" gradientUnits="userSpaceOnUse"><stop offset="0" stop-color="#e9eaef"/><stop offset="0.16" stop-color="#e4e5ea"/><stop offset="0.35" stop-color="#d7d8dc"/><stop offset="0.55" stop-color="#c1c2c5"/><stop offset="0.76" stop-color="#a3a3a5"/><stop offset="0.98" stop-color="#7c7b7b"/><stop offset="1" stop-color="#787777"/></linearGradient><linearGradient id="Namnlös_övertoning_93" x1="74.15" y1="365.07" x2="411.7" y2="120.65" gradientUnits="userSpaceOnUse"><stop offset="0" stop-color="#ebecf0"/><stop offset="0.17" stop-color="#e7e7eb"/><stop offset="0.37" stop-color="#d9dadd"/><stop offset="0.58" stop-color="#c4c3c6"/><stop offset="0.79" stop-color="#a5a4a6"/><stop offset="1" stop-color="#828080"/></linearGradient><linearGradient id="Namnlös_övertoning_92" x1="71.34" y1="357.02" x2="414.5" y2="128.71" gradientUnits="userSpaceOnUse"><stop offset="0" stop-color="#eeeef2"/><stop offset="0.18" stop-color="#e9e9ed"/><stop offset="0.38" stop-color="#dcdcdf"/><stop offset="0.6" stop-color="#c6c6c8"/><stop offset="0.83" stop-color="#a7a7a8"/><stop offset="1" stop-color="#8b8a8a"/></linearGradient><linearGradient id="Namnlös_övertoning_91" x1="68.91" y1="348.93" x2="416.94" y2="136.79" gradientUnits="userSpaceOnUse"><stop offset="0" stop-color="#f0f0f3"/><stop offset="0.19" stop-color="#ebebee"/><stop offset="0.4" stop-color="#dedee0"/><stop offset="0.63" stop-color="#c8c7c9"/><stop offset="0.87" stop-color="#aaa8a9"/><stop offset="1" stop-color="#969494"/></linearGradient><linearGradient id="Namnlös_övertoning_90" x1="66.84" y1="340.83" x2="419" y2="144.89" gradientUnits="userSpaceOnUse"><stop offset="0" stop-color="#f2f3f5"/><stop offset="0.2" stop-color="#edeef0"/><stop offset="0.42" stop-color="#e0e1e2"/><stop offset="0.67" stop-color="#cacacb"/><stop offset="0.92" stop-color="#ababab"/><stop offset="1" stop-color="#a09f9f"/></linearGradient><linearGradient id="Namnlös_övertoning_89" x1="65.14" y1="332.74" x2="420.7" y2="152.99" gradientUnits="userSpaceOnUse"><stop offset="0" stop-color="#f5f5f7"/><stop offset="0.21" stop-color="#f0f0f2"/><stop offset="0.45" stop-color="#e3e3e4"/><stop offset="0.71" stop-color="#cdcccd"/><stop offset="0.98" stop-color="#aeadad"/><stop offset="1" stop-color="#abaaaa"/></linearGradient><linearGradient id="Namnlös_övertoning_88" x1="63.81" y1="324.66" x2="422.04" y2="161.06" gradientUnits="userSpaceOnUse"><stop offset="0" stop-color="#f8f8f9"/><stop offset="0.23" stop-color="#f3f3f4"/><stop offset="0.49" stop-color="#e6e5e6"/><stop offset="0.77" stop-color="#cfcfcf"/><stop offset="1" stop-color="#b7b6b6"/></linearGradient><linearGradient id="Namnlös_övertoning_87" x1="62.83" y1="316.62" x2="423.02" y2="169.1" gradientUnits="userSpaceOnUse"><stop offset="0" stop-color="#fbfbfc"/><stop offset="0.25" stop-color="#f6f6f7"/><stop offset="0.54" stop-color="#e9e9e9"/><stop offset="0.84" stop-color="#d3d2d2"/><stop offset="1" stop-color="#c4c3c3"/></linearGradient><linearGradient id="Namnlös_övertoning_83" x1="62.2" y1="308.64" x2="423.64" y2="177.08" gradientUnits="userSpaceOnUse"><stop offset="0" stop-color="#fff"/><stop offset="0.28" stop-color="#fafafa"/><stop offset="0.61" stop-color="#ececec"/><stop offset="0.96" stop-color="#d5d5d5"/><stop offset="1" stop-color="#d2d2d2"/></linearGradient><linearGradient id="Namnlös_övertoning_106" x1="154.63" y1="143.37" x2="311.84" y2="300.58" gradientUnits="userSpaceOnUse"><stop offset="0" stop-color="#fff"/><stop offset="1" stop-color="#fff" stop-opacity="0"/></linearGradient></defs><title>cap1</title><g class="cls-1"><g id="Lager_1" data-name="Lager 1"><path class="cls-2" d="M536.78,238.26c-.4-1.83-.83-3.65-1.27-5.47L388.6,329.64q24.76,68.64,49.52,137.28c4.94-2.54,12.84-1.28,24,3.62a244.53,244.53,0,0,0,17.86-17.85c-10.83-24.55-4-33.45,22.54-29.22a243.58,243.58,0,0,0,12.84-22c-16.63-21.06-12.19-31.55,14.55-34.44A241.42,241.42,0,0,0,536.78,342C515.29,325.63,516.89,314,542,303.65c.25-4.48.4-9,.4-13.52s-.15-9-.4-13.51C516.89,266.31,515.29,254.64,536.78,238.26Z" transform="translate(-56.67 -47.27)"/><path class="cls-2" d="M169.71,495.34q9,5.67,18.44,10.59c21.06-16.63,31.55-12.19,34.44,14.55a238.92,238.92,0,0,0,25.07,6.9C264,505.9,275.7,507.5,286,532.6c4.48.25,9,.39,13.52.39s9-.14,13.51-.39c10.31-25.1,22-26.7,38.35-5.22a238.25,238.25,0,0,0,25.07-6.9c2.9-26.74,13.38-31.18,34.44-14.55q9.38-4.85,18.24-10.46L298.55,380.9Z" transform="translate(-56.67 -47.27)"/><path class="cls-2" d="M531.93,219.66c-.66-2.17-1.34-4.32-2.06-6.46-26.74-2.9-31.18-13.38-14.55-34.45a244.81,244.81,0,0,0-12.84-21.95c-26.5,4.22-33.37-4.68-22.54-29.22a242.69,242.69,0,0,0-17.86-17.86c-24.54,10.83-33.44,4-29.22-22.54a242.44,242.44,0,0,0-21.95-12.84C389.84,91,379.36,86.53,376.46,59.79a241.24,241.24,0,0,0-25.06-6.91C335,74.37,323.35,72.77,313,47.67c-3.21-.18-6.44-.28-9.67-.34q25.33,84.78,50.69,169.55Z" transform="translate(-56.67 -47.27)"/><path class="cls-2" d="M295.56,47.33c-3.19.06-6.38.16-9.55.34-10.31,25.1-22,26.7-38.35,5.21a241.42,241.42,0,0,0-25.07,6.91C219.7,86.53,209.21,91,188.15,74.34a241.24,241.24,0,0,0-22,12.84c4.22,26.5-4.67,33.37-29.22,22.54a246.67,246.67,0,0,0-17.86,17.86c10.83,24.54,4,33.44-22.54,29.22a244.81,244.81,0,0,0-12.84,21.95c16.63,21.07,12.19,31.55-14.55,34.45-.74,2.2-1.44,4.42-2.11,6.64l175.68-1.31Q269.17,132.93,295.56,47.33Z" transform="translate(-56.67 -47.27)"/><path class="cls-2" d="M535.51,232.79q-1.62-6.64-3.58-13.13l-177.87-2.78Q328.71,132.1,303.37,47.33c-1.28,0-2.56-.06-3.84-.06s-2.65,0-4,.06q-26.4,85.61-52.81,171.2L67.07,219.84q-1.86,6.14-3.4,12.41l145.92,91.52L160.24,466.59c6.51,2.75,8.35,11.46,5.95,26.5,1.16.76,2.34,1.5,3.52,2.25L298.55,380.9,429.14,495.47c1.25-.79,2.49-1.57,3.72-2.38-2.31-14.49-.68-23.1,5.26-26.17q-24.75-68.64-49.52-137.28Z" transform="translate(-56.67 -47.27)"/><path class="cls-2" d="M63.67,232.25c-.49,2-1,4-1.4,6,21.49,16.38,19.89,28.05-5.21,38.36-.25,4.47-.39,9-.39,13.51s.14,9,.39,13.52c25.1,10.3,26.7,22,5.21,38.35a241.42,241.42,0,0,0,6.91,25.07c26.74,2.89,31.18,13.38,14.55,34.44a243.58,243.58,0,0,0,12.84,22c26.5-4.23,33.37,4.67,22.54,29.22A248.56,248.56,0,0,0,137,470.54c10.62-4.68,18.3-6,23.27-4l49.35-142.82Z" transform="translate(-56.67 -47.27)"/><g class="cls-3"><path class="cls-4" d="M542.06,303.65c.24-4.48.39-9,.39-13.52s-.15-9-.39-13.51c-25.11-10.31-26.71-22-5.22-38.36a243.71,243.71,0,0,0-6.9-25.06c-26.74-2.9-31.18-13.38-14.56-34.45a244.71,244.71,0,0,0-12.83-21.95C476,161,469.18,152.12,480,127.58a242.69,242.69,0,0,0-17.86-17.86c-24.54,10.83-33.44,4-29.22-22.54A242.44,242.44,0,0,0,411,74.34C389.91,91,379.42,86.53,376.52,59.79a241.24,241.24,0,0,0-25.06-6.91c-16.38,21.49-28,19.89-38.36-5.21-4.47-.25-9-.4-13.51-.4s-9,.15-13.52.4c-10.3,25.1-22,26.7-38.35,5.21a242.11,242.11,0,0,0-25.07,6.91C219.76,86.53,209.27,91,188.21,74.34a239.72,239.72,0,0,0-22,12.84c4.22,26.5-4.68,33.37-29.22,22.54a242.69,242.69,0,0,0-17.86,17.86C130,152.12,123.13,161,96.63,156.8A242.34,242.34,0,0,0,83.8,178.75C100.42,199.82,96,210.3,69.24,213.2a238.74,238.74,0,0,0-6.9,25.06c21.48,16.38,19.88,28.05-5.22,38.36-.24,4.47-.39,9-.39,13.51s.15,9,.39,13.52c25.1,10.3,26.7,22,5.22,38.35a238.92,238.92,0,0,0,6.9,25.07C96,370,100.42,380.45,83.8,401.51a241.14,241.14,0,0,0,12.83,22c26.5-4.23,33.37,4.67,22.55,29.22A244.53,244.53,0,0,0,137,470.54c24.54-10.82,33.44-4,29.22,22.55a242,242,0,0,0,22,12.84c21.06-16.63,31.55-12.19,34.44,14.55a239.59,239.59,0,0,0,25.07,6.9c16.37-21.48,28-19.88,38.35,5.22,4.48.25,9,.39,13.52.39s9-.14,13.51-.39c10.31-25.1,22-26.7,38.36-5.22a238.74,238.74,0,0,0,25.06-6.9c2.9-26.74,13.39-31.18,34.45-14.55a244.81,244.81,0,0,0,21.95-12.84c-4.22-26.5,4.68-33.37,29.22-22.55A244.53,244.53,0,0,0,480,452.69c-10.82-24.55-3.95-33.45,22.55-29.22a243.49,243.49,0,0,0,12.83-22c-16.62-21.06-12.18-31.55,14.56-34.44a243.9,243.9,0,0,0,6.9-25.07C515.35,325.63,517,314,542.06,303.65Z" transform="translate(-56.67 -47.27)"/><path class="cls-4" d="M542.06,303.65c.24-4.48.39-9,.39-13.52s-.15-9-.39-13.51c-25.11-10.31-26.71-22-5.22-38.36a243.71,243.71,0,0,0-6.9-25.06c-26.74-2.9-31.18-13.38-14.56-34.45a244.71,244.71,0,0,0-12.83-21.95C476,161,469.18,152.12,480,127.58a242.69,242.69,0,0,0-17.86-17.86c-24.54,10.83-33.44,4-29.22-22.54A242.44,242.44,0,0,0,411,74.34C389.91,91,379.42,86.53,376.52,59.79a241.24,241.24,0,0,0-25.06-6.91c-16.38,21.49-28,19.89-38.36-5.21-4.47-.25-9-.4-13.51-.4s-9,.15-13.52.4c-10.3,25.1-22,26.7-38.35,5.21a242.11,242.11,0,0,0-25.07,6.91C219.76,86.53,209.27,91,188.21,74.34a239.72,239.72,0,0,0-22,12.84c4.22,26.5-4.68,33.37-29.22,22.54a242.69,242.69,0,0,0-17.86,17.86C130,152.12,123.13,161,96.63,156.8A242.34,242.34,0,0,0,83.8,178.75C100.42,199.82,96,210.3,69.24,213.2a238.74,238.74,0,0,0-6.9,25.06c21.48,16.38,19.88,28.05-5.22,38.36-.24,4.47-.39,9-.39,13.51s.15,9,.39,13.52c25.1,10.3,26.7,22,5.22,38.35a238.92,238.92,0,0,0,6.9,25.07C96,370,100.42,380.45,83.8,401.51a241.14,241.14,0,0,0,12.83,22c26.5-4.23,33.37,4.67,22.55,29.22A244.53,244.53,0,0,0,137,470.54c24.54-10.82,33.44-4,29.22,22.55a242,242,0,0,0,22,12.84c21.06-16.63,31.55-12.19,34.44,14.55a239.59,239.59,0,0,0,25.07,6.9c16.37-21.48,28-19.88,38.35,5.22,4.48.25,9,.39,13.52.39s9-.14,13.51-.39c10.31-25.1,22-26.7,38.36-5.22a238.74,238.74,0,0,0,25.06-6.9c2.9-26.74,13.39-31.18,34.45-14.55a244.81,244.81,0,0,0,21.95-12.84c-4.22-26.5,4.68-33.37,29.22-22.55A244.53,244.53,0,0,0,480,452.69c-10.82-24.55-3.95-33.45,22.55-29.22a243.49,243.49,0,0,0,12.83-22c-16.62-21.06-12.18-31.55,14.56-34.44a243.9,243.9,0,0,0,6.9-25.07C515.35,325.63,517,314,542.06,303.65Z" transform="translate(-56.67 -47.27)"/><path class="cls-5" d="M542.06,276.73,460.11,269l71.79-26.68c1.48-1.32,3.12-2.67,4.94-4.06a240.49,240.49,0,0,0-6.51-23.83l-81.16,13.74,62.54-44.42c1.09-1.6,2.3-3.26,3.67-5a239.6,239.6,0,0,0-12.52-21.45L428,191.57,479,130.05c.33-.81.68-1.63,1.05-2.47a242.69,242.69,0,0,0-17.86-17.86q-1.26.56-2.46,1l-61.53,50.91,34.28-74.82A243.64,243.64,0,0,0,411,74.34q-2.61,2.05-5,3.67l-44.43,62.54,13.74-81.16a242.49,242.49,0,0,0-23.83-6.51c-1.39,1.82-2.74,3.46-4.06,4.94l-26.68,71.79-7.73-82c-4.44-.24-8.9-.39-13.4-.39s-9,.15-13.4.39l-7.73,82L251.77,57.82c-1.32-1.48-2.66-3.12-4.05-4.94a242.49,242.49,0,0,0-23.83,6.51l13.74,81.16L193.2,78q-2.38-1.62-5-3.67a243.64,243.64,0,0,0-21.46,12.52L201,161.68,139.5,110.77q-1.2-.49-2.46-1a242.69,242.69,0,0,0-17.86,17.86c.37.84.71,1.66,1,2.47l50.92,61.52L96.32,157.3A239.6,239.6,0,0,0,83.8,178.75c1.37,1.74,2.58,3.4,3.67,5L150,228.17,68.85,214.43a240.49,240.49,0,0,0-6.51,23.83c1.81,1.39,3.45,2.74,4.94,4.06L139.07,269l-81.95,7.73c-.25,4.44-.39,8.9-.39,13.4s.14,9,.39,13.4l81.95,7.74L67.28,338c-1.49,1.32-3.13,2.67-4.94,4.05a239.74,239.74,0,0,0,6.51,23.83L150,352.09,87.47,396.52c-1.09,1.59-2.3,3.25-3.67,5A241.18,241.18,0,0,0,96.32,423l74.82-34.27-50.92,61.52c-.33.8-.67,1.62-1,2.47A244.53,244.53,0,0,0,137,470.54c.84-.37,1.66-.71,2.46-1L201,418.58l-34.28,74.83a246.16,246.16,0,0,0,21.46,12.52c1.74-1.38,3.4-2.59,5-3.67l44.43-62.54-13.74,81.15a237.05,237.05,0,0,0,23.83,6.51c1.39-1.81,2.73-3.45,4.05-4.94l26.69-71.79,7.73,82c4.44.25,8.9.39,13.4.39s9-.14,13.4-.39l7.73-82,26.68,71.79c1.32,1.49,2.67,3.13,4.06,4.94a237.05,237.05,0,0,0,23.83-6.51l-13.74-81.15L406,502.26c1.59,1.08,3.25,2.29,5,3.67a246.16,246.16,0,0,0,21.46-12.52l-34.28-74.83,61.53,50.92c.8.33,1.62.67,2.46,1A244.53,244.53,0,0,0,480,452.69c-.37-.85-.72-1.67-1.05-2.47L428,388.7,502.86,423a241.18,241.18,0,0,0,12.52-21.46c-1.37-1.74-2.58-3.39-3.67-5l-62.54-44.43,81.16,13.74A239.74,239.74,0,0,0,536.84,342c-1.82-1.38-3.46-2.73-4.94-4.05l-71.79-26.68,81.95-7.74c.24-4.43.39-8.9.39-13.4S542.3,281.17,542.06,276.73Z" transform="translate(-56.67 -47.27)"/><path class="cls-6" d="M542.35,283.54l-142.43-6.62,135.85-43.25q-1.53-6.43-3.41-12.73L393.08,251.41l120-76.94q-3.15-5.81-6.59-11.41L379.87,228.53l96-105.39q-4.54-4.78-9.32-9.31l-105.39,96L426.66,83.21q-5.6-3.45-11.41-6.59l-76.94,120L368.78,57.36Q362.5,55.49,356.05,54L312.8,189.81,306.18,47.37c-2.19-.06-4.39-.1-6.59-.1s-4.4,0-6.59.1l-6.62,142.44L243.12,54c-4.28,1-8.53,2.16-12.72,3.41l30.46,139.28-76.93-120q-5.81,3.15-11.42,6.59L238,209.85l-105.39-96q-4.78,4.53-9.32,9.31l96,105.39L92.67,163.06q-3.45,5.61-6.59,11.41l120,76.94L66.82,220.94q-1.87,6.3-3.42,12.73l135.86,43.25L56.83,283.54c-.06,2.19-.1,4.39-.1,6.59s0,4.4.1,6.59l142.43,6.62L63.4,346.6q1.55,6.43,3.42,12.73L206.1,328.86l-120,76.93q3.15,5.81,6.59,11.42l126.64-65.48-96,105.39q4.53,4.78,9.32,9.32l105.39-96L172.51,497.05q5.61,3.45,11.42,6.59l76.93-120L230.4,522.91c4.19,1.25,8.44,2.38,12.72,3.41l43.26-135.86L293,532.89c2.19.07,4.38.1,6.59.1s4.4,0,6.59-.1l6.62-142.43,43.25,135.86q6.43-1.55,12.73-3.41L338.31,383.62l76.94,120q5.81-3.13,11.41-6.59L361.19,370.41l105.39,96q4.79-4.53,9.32-9.32l-96-105.39,126.64,65.48q3.45-5.61,6.59-11.42l-120-76.93,139.28,30.47q1.88-6.3,3.41-12.73L399.92,303.34l142.43-6.62c.06-2.19.1-4.38.1-6.59S542.41,285.73,542.35,283.54Z" transform="translate(-56.67 -47.27)"/><circle class="cls-7" cx="242.92" cy="242.86" r="217.56"/><circle class="cls-8" cx="242.92" cy="242.86" r="215.26"/><circle class="cls-9" cx="242.92" cy="242.86" r="212.96"/><circle class="cls-10" cx="242.92" cy="242.86" r="210.66"/><circle class="cls-11" cx="242.92" cy="242.86" r="208.36"/><circle class="cls-12" cx="242.92" cy="242.86" r="206.06"/><circle class="cls-13" cx="242.92" cy="242.86" r="203.76"/><circle class="cls-14" cx="242.92" cy="242.86" r="201.46"/><circle class="cls-15" cx="242.92" cy="242.86" r="199.16"/><circle class="cls-16" cx="242.92" cy="242.86" r="196.86"/><circle class="cls-17" cx="242.92" cy="242.86" r="194.56"/><circle class="cls-18" cx="242.92" cy="242.86" r="192.26"/></g><path class="cls-19" d="M230.67,350.1a71.39,71.39,0,0,1-.82-10.73,69.72,69.72,0,0,1,69.72-69.73h0c40.62,0,72.17,38.95,69.58,65.05a7.8,7.8,0,0,1-.09.83" transform="translate(-56.67 -47.27)"/><path class="cls-19" d="M409.32,385.57c-3.5-6.47-16.13-19.68-18.37-22-6.28-6.6-12.65-14.55-25.42-30.33l-14.81-18.4c-1.72-2.59-4.12-4.71-5.9-7.28-.83-1.21-1.85-2.77-2.76-2.58-.62.14-.75,1-2.31,3.93-.26.52-.56,1-.83,1.53-1.37,2.47-2.56,4.38-3.06,5.2-.74,1.21-3.64,6.16-9.44,16.09-4.72,8.07-7,12.2-9.43,16.45" transform="translate(-56.67 -47.27)"/><circle class="cls-19" cx="242.92" cy="242.86" r="148.1"/><path class="cls-19" d="M189.93,389.63c-2.52-4.48,15.43-18.84,25.08-27.31a330.71,330.71,0,0,0,41.93-45c4.55-6.05,10.65-11,14.4-17.56,1.65-2.9,3.13-4.11,6.07-6.53,1.28-1.12,2.24-1.7,3.36-1.54,1.34.19,2.24,1.45,3.7,4,2.13,3.54,3.09,5.35,3.56,6.16l11.91,20.64,29.22,50.69,17.41,30.21c3.06,5.32,3.62,10.89,8.88,15.42,2.24,1.93,4.6,3.21,4.48,5" transform="translate(-56.67 -47.27)"/><path class="cls-19" d="M251.37,324.56l11.29,6.16,9.47-6,8.32,6.18,8.3-7c3.92,5.21,5.42,7.63,5.8,8.7a.82.82,0,0,0,.16.25c1,.93,4.86-1.5,8.67-4.25" transform="translate(-56.67 -47.27)"/><path class="cls-19" d="M364.2,331.56l-11.57-5.11L347.4,333l-6.59-6.37h0l-5.92,5.69h0l-6.64-3.8" transform="translate(-56.67 -47.27)"/><line class="cls-19" x1="242.92" y1="94.76" x2="242.92" y2="222.36"/><path class="cls-19" d="M299.58,216.11" transform="translate(-56.67 -47.27)"/><line class="cls-19" x1="288.12" y1="239" x2="364.11" y2="157.73"/><line class="cls-19" x1="193.61" y1="242.79" x2="119.53" y2="160.95"/><line class="cls-19" x1="215.58" y1="227.94" x2="167.99" y2="115.1"/><line class="cls-19" x1="269.63" y1="227.68" x2="316.12" y2="114.1"/><line class="cls-19" x1="179.31" y1="263.5" x2="96.24" y2="222.36"/><line class="cls-19" x1="303.56" y1="257.66" x2="389.19" y2="219.56"/><path class="cls-20" d="M107.05,299.54c0-111.77,90.61-202.38,202.38-202.38a201.72,201.72,0,0,1,144.81,61A201.94,201.94,0,0,0,297.73,84.1C186,84.1,95.34,174.71,95.34,286.48a201.72,201.72,0,0,0,57.58,141.37A201.59,201.59,0,0,1,107.05,299.54Z" transform="translate(-56.67 -47.27)"/></g></g></svg>