<svg id="Lager_1" data-name="Lager 1" xmlns="http://www.w3.org/2000/svg" viewBox="0 0 273.73 273.73"><defs><style>.cls-1{fill:none;stroke:#dcd999;stroke-miterlimit:10;stroke-width:9px;}</style></defs><title>logotypCOLOR2</title><path class="cls-1" d="M76.41,191.67a63.21,63.21,0,0,1-.73-9.59A62.32,62.32,0,0,1,138,119.75c36.31,0,64.51,34.82,62.19,58.15,0,.25-.05.49-.08.74" transform="translate(-1.14 -1.2)"/><path class="cls-1" d="M236.09,223.37c-3.13-5.78-14.42-17.59-16.42-19.69-5.61-5.9-11.31-13-22.72-27.11l-13.24-16.44c-1.54-2.32-3.68-4.21-5.27-6.51-.74-1.08-1.66-2.48-2.47-2.31-.55.13-.67.91-2.06,3.52-.24.46-.5.91-.75,1.36-1.22,2.21-2.28,3.92-2.73,4.65-.66,1.08-3.25,5.51-8.44,14.38-4.22,7.22-6.26,10.91-8.43,14.71" transform="translate(-1.14 -1.2)"/><circle class="cls-1" cx="136.87" cy="136.87" r="132.37"/><path class="cls-1" d="M40,227c-2.26-4,13.79-16.84,22.41-24.41a295.55,295.55,0,0,0,37.48-40.21c4.07-5.41,9.52-9.82,12.87-15.7,1.48-2.59,2.8-3.67,5.43-5.83,1.14-1,2-1.52,3-1.38,1.2.17,2,1.3,3.31,3.58,1.9,3.16,2.76,4.78,3.18,5.5,0,0,10.61,18.4,10.64,18.45l26.12,45.31,15.56,27c2.74,4.75,3.24,9.73,7.94,13.78,2,1.73,4.11,2.87,4,4.49" transform="translate(-1.14 -1.2)"/><path class="cls-1" d="M94.91,168.84,105,174.35l8.47-5.38,7.43,5.52,7.42-6.28c3.51,4.65,4.85,6.82,5.19,7.77a.69.69,0,0,0,.14.23c.86.83,4.34-1.34,7.75-3.8" transform="translate(-1.14 -1.2)"/><path class="cls-1" d="M195.76,175.1l-10.34-4.57-4.68,5.89-5.89-5.69h0l-5.29,5.08h0l-5.93-3.39" transform="translate(-1.14 -1.2)"/><line class="cls-1" x1="136.87" y1="4.5" x2="136.87" y2="118.55"/><path class="cls-1" d="M138,71.91" transform="translate(-1.14 -1.2)"/><line class="cls-1" x1="177.27" y1="133.42" x2="245.19" y2="60.78"/><line class="cls-1" x1="92.79" y1="136.81" x2="26.58" y2="63.66"/><line class="cls-1" x1="112.43" y1="123.53" x2="69.89" y2="22.68"/><line class="cls-1" x1="160.74" y1="123.3" x2="202.29" y2="21.78"/><line class="cls-1" x1="80.01" y1="155.32" x2="5.76" y2="118.55"/><line class="cls-1" x1="191.07" y1="150.1" x2="267.6" y2="116.04"/></svg>